<?xml version="1.0" encoding="utf-8"?>
<!-- Generator: Adobe Illustrator 25.1.0, SVG Export Plug-In . SVG Version: 6.00 Build 0)  -->
<svg version="1.1" id="Layer_1" xmlns="http://www.w3.org/2000/svg" xmlns:xlink="http://www.w3.org/1999/xlink" x="0px" y="0px"
	 viewBox="0 0 227.4 227.4" style="enable-background:new 0 0 227.4 227.4;" xml:space="preserve">
<style type="text/css">
	.st0{fill:#222A2F;}
	.st1{fill:#FFFFFF;}
</style>
<rect class="st0" width="227.4" height="227.4"/>
<g>
	<path class="st1" d="M176.4,25.1c-0.7,8.4-1.1,16.4-1.4,24.2c-0.2,7.8-0.4,13.8-0.4,17.9c0,3.5,0.1,6.9,0.2,10
		c0.2,3.2,0.3,5.9,0.5,8h-5.8c-2-13.9-5.4-24.8-10-32.8c-4.7-7.9-10.2-13.6-16.4-16.8c-6.3-3.3-12.8-4.9-19.7-4.9h-3.3
		c-4.4,0-7.6,0.4-9.8,1.1c-2.2,0.8-3.6,2.2-4.4,4.4c-0.8,2.2-1.1,5.6-1.1,10.3v134.6c0,4.5,0.4,7.9,1.1,10.2
		c0.8,2.3,2.2,3.8,4.4,4.5c2.2,0.8,5.4,1.1,9.8,1.1h8.3c5.5,0,11.3-1.8,17.4-5.4c6.1-3.6,11.8-9.7,16.9-18.5
		c5.2-8.7,9.1-20.6,11.8-35.6h5.8c-0.5,6-0.8,13.7-0.8,23.1c0,4.2,0.1,10.2,0.3,17.9c0.2,7.8,0.7,15.9,1.5,24.2
		c-8.5-0.3-18.2-0.5-28.9-0.6c-10.7-0.1-20.2-0.1-28.6-0.1c-6,0-14.1,0-24.2,0c-10.1,0-20.8,0-32.1,0.1c-11.3,0.1-21.8,0.3-31.5,0.6
		v-5c5.2-0.3,9-1,11.5-2c2.5-1,4.2-3,5-6c0.8-3,1.3-7.5,1.3-13.6V51.7c0-6.2-0.4-10.8-1.3-13.7c-0.8-2.9-2.6-4.9-5.1-6
		c-2.6-1.1-6.4-1.7-11.4-1.9v-5c9.7,0.2,20.2,0.3,31.5,0.5c11.3,0.2,22,0.3,32.1,0.3c10.1,0,18.2,0,24.2,0c7.7,0,16.4,0,26.2-0.1
		C159.9,25.6,168.7,25.4,176.4,25.1z M140,110.9v5H97.3v-5H140z M147.2,77.8c-0.7,9.5-1,16.8-0.9,21.8c0.1,5,0.1,9.6,0.1,13.8
		c0,4.2,0.1,8.8,0.2,13.8c0.2,5,0.6,12.3,1.3,21.8h-5.8c-1-6.2-3.1-11.8-6.2-16.8c-3.1-5-7.1-9-11.9-11.9
		c-4.9-2.9-10.5-4.4-16.8-4.4v-5c6.4,0,11.9-1.8,16.6-5.3c4.7-3.5,8.5-7.8,11.5-12.9c3-5.1,5-10.1,6-14.9H147.2z"/>
</g>
</svg>
