<svg id="Layer_1" data-name="Layer 1" xmlns="http://www.w3.org/2000/svg" viewBox="0 0 98 98"><defs><style>.cls-1{fill:#fff;}.cls-2{fill:#222a2f;}</style></defs><path class="cls-1" d="M78.5,29h-57a2.5,2.5,0,0,0,0,5h57a2.5,2.5,0,0,0,0-5Z" transform="translate(-1 -1)"/><path class="cls-1" d="M78.5,66h-57a2.5,2.5,0,0,0,0,5h57a2.5,2.5,0,0,0,0-5Z" transform="translate(-1 -1)"/><path class="cls-1" d="M78.5,47h-57a2.5,2.5,0,0,0,0,5h57a2.5,2.5,0,0,0,0-5Z" transform="translate(-1 -1)"/><path class="cls-2" d="M50,1A49,49,0,1,0,99,50,49,49,0,0,0,50,1ZM21.5,66h57a2.5,2.5,0,0,1,0,5h-57a2.5,2.5,0,0,1,0-5ZM19,49.5A2.5,2.5,0,0,1,21.5,47h57a2.5,2.5,0,0,1,0,5h-57A2.5,2.5,0,0,1,19,49.5ZM78.5,34h-57a2.5,2.5,0,0,1,0-5h57a2.5,2.5,0,0,1,0,5Z" transform="translate(-1 -1)"/></svg>