<svg id="Layer_1" data-name="Layer 1" xmlns="http://www.w3.org/2000/svg" viewBox="0 0 98 98"><defs><style>.cls-1{fill:#fff;}.cls-2{fill:#222a2f;}</style></defs><path class="cls-1" d="M62.5,40h-25a1.5,1.5,0,0,0,0,3h25a1.5,1.5,0,0,0,0-3Z" transform="translate(-1 -1)"/><path class="cls-1" d="M62.5,54h-25a1.5,1.5,0,0,0,0,3h25a1.5,1.5,0,0,0,0-3Z" transform="translate(-1 -1)"/><path class="cls-1" d="M62.5,61h-25a1.5,1.5,0,0,0,0,3h25a1.5,1.5,0,0,0,0-3Z" transform="translate(-1 -1)"/><path class="cls-1" d="M62.5,47h-25a1.5,1.5,0,0,0,0,3h25a1.5,1.5,0,0,0,0-3Z" transform="translate(-1 -1)"/><path class="cls-1" d="M74.73,30.92a.54.54,0,0,0-.07-.13,2.66,2.66,0,0,0-.39-.54L63.74,19.73a2.66,2.66,0,0,0-.54-.39l-.13-.07a2.23,2.23,0,0,0-.61-.22A2.4,2.4,0,0,0,62,19H35.17A9.19,9.19,0,0,0,26,28.17V70.83A9.19,9.19,0,0,0,35.17,80H65.83A9.19,9.19,0,0,0,75,70.83V32a2.42,2.42,0,0,0,0-.47A2.23,2.23,0,0,0,74.73,30.92ZM70,70.83A4.17,4.17,0,0,1,65.83,75H35.17A4.17,4.17,0,0,1,31,70.83V28.17A4.17,4.17,0,0,1,35.17,24H59.48v1.35a9.19,9.19,0,0,0,9.17,9.17H70Z" transform="translate(-1 -1)"/><path class="cls-2" d="M50,1A49,49,0,1,0,99,50,49,49,0,0,0,50,1ZM26,70.83V28.17A9.19,9.19,0,0,1,35.17,19H62a2.4,2.4,0,0,1,.46.05,2.23,2.23,0,0,1,.61.22l.13.07a2.66,2.66,0,0,1,.54.39L74.27,30.25a2.66,2.66,0,0,1,.39.54.54.54,0,0,1,.07.13,2.23,2.23,0,0,1,.22.61A2.42,2.42,0,0,1,75,32V70.83A9.19,9.19,0,0,1,65.83,80H35.17A9.19,9.19,0,0,1,26,70.83Z" transform="translate(-1 -1)"/><path class="cls-2" d="M59.48,25.35V24H35.17A4.17,4.17,0,0,0,31,28.17V70.83A4.17,4.17,0,0,0,35.17,75H65.83A4.17,4.17,0,0,0,70,70.83V34.52H68.65A9.19,9.19,0,0,1,59.48,25.35ZM62.5,64h-25a1.5,1.5,0,0,1,0-3h25a1.5,1.5,0,0,1,0,3Zm0-7h-25a1.5,1.5,0,0,1,0-3h25a1.5,1.5,0,0,1,0,3Zm0-7h-25a1.5,1.5,0,0,1,0-3h25a1.5,1.5,0,0,1,0,3Zm0-7h-25a1.5,1.5,0,0,1,0-3h25a1.5,1.5,0,0,1,0,3Z" transform="translate(-1 -1)"/></svg>